/* XPM */
static char * D:\Projects\Blockchain\logo\VTE\bitcoin32_xpm[] = {
"32 32 89 1",
" 	c None",
".	c #A72F68",
"+	c #792A6F",
"@	c #772A70",
"#	c #782B70",
"$	c #C43663",
"%	c #C03061",
"&	c #962B6A",
"*	c #7A296F",
"=	c #7B296F",
"-	c #7B2E71",
";	c #C33160",
">	c #C33060",
",	c #B52E64",
"'	c #862A6D",
")	c #7E296F",
"!	c #7E2A6F",
"~	c #7E2B70",
"{	c #7F2B70",
"]	c #7F2B6F",
"^	c #7E2B6F",
"/	c #7D2B6F",
"(	c #7E2C6F",
"_	c #C33261",
":	c #C13060",
"<	c #9F2C69",
"[	c #822A6D",
"}	c #832C6F",
"|	c #883070",
"1	c #892B6C",
"2	c #8A2B6C",
"3	c #8A2C6D",
"4	c #8A2C6C",
"5	c #8A2D6D",
"6	c #8D2C6C",
"7	c #8D2B6C",
"8	c #8E316F",
"9	c #912C6A",
"0	c #912D6B",
"a	c #953B72",
"b	c #963E74",
"c	c #963E73",
"d	c #963D73",
"e	c #953C72",
"f	c #943A71",
"g	c #943871",
"h	c #933770",
"i	c #952F6B",
"j	c #952C6A",
"k	c #992D69",
"l	c #992C69",
"m	c #9A2F6A",
"n	c #9B346C",
"o	c #9C356C",
"p	c #9C346C",
"q	c #9B336C",
"r	c #9A336C",
"s	c #9D316B",
"t	c #9C2D69",
"u	c #9C2D68",
"v	c #A02F68",
"w	c #A02D67",
"x	c #A42E67",
"y	c #A42D67",
"z	c #A43169",
"A	c #A33269",
"B	c #A33068",
"C	c #A33168",
"D	c #A83066",
"E	c #A82E66",
"F	c #A83268",
"G	c #AB2E65",
"H	c #AB2F65",
"I	c #AD3468",
"J	c #AE386B",
"K	c #AE386A",
"L	c #AD386A",
"M	c #AF3367",
"N	c #AF2F64",
"O	c #B33064",
"P	c #B32F63",
"Q	c #B23165",
"R	c #B73365",
"S	c #B72F63",
"T	c #B62F63",
"U	c #BA3163",
"V	c #BA3062",
"W	c #BA3262",
"X	c #BE3162",
"                                ",
"                                ",
"                                ",
"                                ",
"                                ",
"                                ",
"     .+@@@@@@@@@@@@@@@@@@@@@#   ",
"    $%&*============**======-   ",
"    ;>,')))!~{{{{{{{{{]^^^/(    ",
"   _>>:<[[[}                    ",
"        ''''|                   ",
"         12223333333344445      ",
"         67777777777777778      ",
"          9990abcdddeafgh       ",
"          ijjj                  ",
"           kklmnoopqqrr         ",
"           stuuuuuuuuut         ",
"            vwwwwwwwwwv         ",
"             xyyzABCCC          ",
"             DEEF               ",
"              GGHIJKL           ",
"              MNNNNN            ",
"               OPPPQ            ",
"               RSST             ",
"                UVW             ",
"                 X              ",
"                                ",
"                                ",
"                                ",
"                                ",
"                                ",
"                                "};
