/* XPM */
static char * D:\Projects\Blockchain\logo\VTE\bitcoin16_xpm[] = {
"16 16 38 1",
" 	c None",
".	c #B83265",
"+	c #852B6E",
"@	c #792A70",
"#	c #C33160",
"$	c #A82D67",
"%	c #812A6E",
"&	c #802A6F",
"*	c #802E71",
"=	c #802D71",
"-	c #7F2C70",
";	c #7F2C6F",
">	c #882B6D",
",	c #8A2E6E",
"'	c #8B2F6E",
")	c #8B306E",
"!	c #8A2E6D",
"~	c #8A2F6E",
"{	c #8F2C6B",
"]	c #91336F",
"^	c #91346F",
"/	c #90336F",
"(	c #90316E",
"_	c #8F316E",
":	c #972E6A",
"<	c #972D6A",
"[	c #9B3A6F",
"}	c #9E2E68",
"|	c #9E2D68",
"1	c #A63067",
"2	c #A62E67",
"3	c #A63269",
"4	c #AD2F65",
"5	c #AE3065",
"6	c #AF3367",
"7	c #B52F63",
"8	c #B43164",
"9	c #BB3163",
"                ",
"                ",
"                ",
"  .+@@@@@@@@@@  ",
"  #$%&*====-;   ",
"    >>,')',!~   ",
"     {{]^^/(_   ",
"     :<[        ",
"      }||||     ",
"      123       ",
"       456      ",
"        78      ",
"        9       ",
"                ",
"                ",
"                "};
