/* XPM */
static char * D:\Projects\Blockchain\logo\VTE\bitcoin64_xpm[] = {
"64 64 187 2",
"  	c None",
". 	c #BB3364",
"+ 	c #852B6E",
"@ 	c #762A70",
"# 	c #772A70",
"$ 	c #C53B66",
"% 	c #C33060",
"& 	c #A82D66",
"* 	c #7A296F",
"= 	c #782970",
"- 	c #792D72",
"; 	c #C33161",
"> 	c #BF2F61",
", 	c #8F2A6B",
"' 	c #7A2970",
") 	c #792970",
"! 	c #7A2A70",
"~ 	c #C43865",
"{ 	c #B22E64",
"] 	c #81296E",
"^ 	c #7B296F",
"/ 	c #7D2E71",
"( 	c #C33160",
"_ 	c #C13060",
": 	c #9C2C69",
"< 	c #7D2A6F",
"[ 	c #7D296F",
"} 	c #7E2B6F",
"| 	c #C43462",
"1 	c #B92F62",
"2 	c #882A6D",
"3 	c #7F2A6E",
"4 	c #802C6F",
"5 	c #802D70",
"6 	c #802E71",
"7 	c #812E71",
"8 	c #802E70",
"9 	c #802C70",
"0 	c #7F2C70",
"a 	c #7F2C6F",
"b 	c #C23060",
"c 	c #A72D67",
"d 	c #832A6E",
"e 	c #812A6E",
"f 	c #853373",
"g 	c #C33261",
"h 	c #BE2F61",
"i 	c #922B6B",
"j 	c #832A6D",
"k 	c #832B6E",
"l 	c #C43664",
"m 	c #C43563",
"n 	c #C43562",
"o 	c #C43362",
"p 	c #C33262",
"q 	c #AA3067",
"r 	c #852A6D",
"s 	c #862F70",
"t 	c #882D6E",
"u 	c #872A6D",
"v 	c #872B6D",
"w 	c #8A3371",
"x 	c #8B3673",
"y 	c #8C3673",
"z 	c #8C3773",
"A 	c #8B3672",
"B 	c #8B3472",
"C 	c #8A3471",
"D 	c #8B3572",
"E 	c #8A3472",
"F 	c #892C6D",
"G 	c #892B6C",
"H 	c #882B6C",
"I 	c #8B3471",
"J 	c #8C2F6E",
"K 	c #8A2B6C",
"L 	c #8B2E6D",
"M 	c #8C2C6C",
"N 	c #8C2B6C",
"O 	c #903671",
"P 	c #8E2B6B",
"Q 	c #8F2F6D",
"R 	c #912E6C",
"S 	c #902C6B",
"T 	c #922C6A",
"U 	c #922E6B",
"V 	c #9A4578",
"W 	c #9D4E7D",
"X 	c #9D4D7C",
"Y 	c #9C4C7B",
"Z 	c #9C4D7C",
"` 	c #9B4B7A",
" .	c #9B4A7A",
"..	c #9B497A",
"+.	c #9A4879",
"@.	c #9A4678",
"#.	c #994578",
"$.	c #994477",
"%.	c #95306D",
"&.	c #942C6A",
"*.	c #993C72",
"=.	c #962D6A",
"-.	c #962C69",
";.	c #952C6A",
">.	c #962C6A",
",.	c #962F6B",
"'.	c #99336C",
").	c #982C69",
"!.	c #972C69",
"~.	c #9B386F",
"{.	c #9A2F6A",
"].	c #9A2D69",
"^.	c #9A2C69",
"/.	c #9A306A",
"(.	c #9A2E6A",
"_.	c #9C2D69",
":.	c #9C2D68",
"<.	c #9C2F69",
"[.	c #9E316A",
"}.	c #9D2D68",
"|.	c #9D2E68",
"1.	c #9F2E68",
"2.	c #9F2D67",
"3.	c #9F316A",
"4.	c #A2336A",
"5.	c #A12D67",
"6.	c #A12E68",
"7.	c #A32F68",
"8.	c #A32D67",
"9.	c #A33068",
"0.	c #A6356A",
"a.	c #A52E67",
"b.	c #A52D66",
"c.	c #A52D67",
"d.	c #A7366B",
"e.	c #A73167",
"f.	c #A62E66",
"g.	c #A62F67",
"h.	c #A82F66",
"i.	c #A82E66",
"j.	c #AA3268",
"k.	c #AA3267",
"l.	c #AA2E65",
"m.	c #AA2F65",
"n.	c #AD386B",
"o.	c #AF3E6E",
"p.	c #AF4170",
"q.	c #B04271",
"r.	c #AF4270",
"s.	c #AF406F",
"t.	c #AE3E6E",
"u.	c #AE3C6D",
"v.	c #AC2F65",
"w.	c #AC2E65",
"x.	c #AC3167",
"y.	c #AF3467",
"z.	c #AE2E65",
"A.	c #AE2F65",
"B.	c #B03165",
"C.	c #B02F64",
"D.	c #B33768",
"E.	c #B22F64",
"F.	c #B22F63",
"G.	c #B23065",
"H.	c #B43264",
"I.	c #B42F63",
"J.	c #B32F63",
"K.	c #B63063",
"L.	c #B62F63",
"M.	c #B63265",
"N.	c #B83365",
"O.	c #B72F63",
"P.	c #B72F62",
"Q.	c #B73063",
"R.	c #B93163",
"S.	c #B93062",
"T.	c #B93364",
"U.	c #BC3665",
"V.	c #BB3062",
"W.	c #BB3162",
"X.	c #BD3262",
"Y.	c #BD3061",
"Z.	c #BC3061",
"`.	c #C03966",
" +	c #BF3061",
".+	c #BF3262",
"++	c #C13462",
"                                                                                                                                ",
"                                                                                                                                ",
"                                                                                                                                ",
"                                                                                                                                ",
"                                                                                                                                ",
"                                                                                                                                ",
"                                                                                                                                ",
"                                                                                                                                ",
"                                                                                                                                ",
"                                                                                                                                ",
"                                                                                                                                ",
"                                                                                                                                ",
"                    . + @ @ @ @ @ @ @ @ @ @ @ @ @ @ @ @ @ @ @ @ @ @ @ @ @ @ @ @ @ @ @ @ @ @ @ @ @ @ @ @ @ @ @ @ @ #             ",
"                  $ % & * = = = = = = = = = = = = = = = = = = = = = = = = = = = = = = = = = = = = = = = = = = = = -             ",
"                  ; % > , * ' ' ' ' ' ' ' ' ' ' ' ' ' ' ' ' ' ' ' ' ' ' ' ' ' ' ' ) ) ' ' ' ' ' ' ' ' ' ' ' ' ' !               ",
"                ~ % % % { ] ^ ^ ^ ^ ^ ^ ^ ^ ^ ^ ^ ^ ^ ^ ^ ^ ^ ^ ^ ^ ^ ^ ^ ^ ^ ^ ^ ^ ^ ^ ^ ^ ^ ^ ^ ^ ^ ^ ^ ^ ^ ^ /               ",
"                ( % % % _ : < [ [ [ [ [ [ [ [ [ [ [ [ [ [ [ [ [ [ [ [ [ [ [ [ [ [ [ [ [ [ [ [ [ [ [ [ [ [ [ [ }                 ",
"              | % % % % % 1 2 3 3 3 3 3 3 3 3 4 5 6 6 6 7 7 6 6 6 6 6 6 6 6 7 6 6 6 6 6 8 5 5 5 5 5 9 0 0 a a                   ",
"            $ % % % % % % b c d e e e e e e e f                                                                                 ",
"            g % % % % % % % h i j j j j j j j k                                                                                 ",
"            l m m n n n n o p q r r r r r r r r s                                                                               ",
"                                t u u u u u u u v w x y z z z z y y z z z z y A x B w w w w C D B D B E z                       ",
"                                  F G G G G G G G G G G G G G G G G G G G G G G G G G G G H G G G G G G I                       ",
"                                  J K K K K K K K K K K K K K K K K K K K K K K K K K K K K K K K K K L                         ",
"                                    M N N N N N N N N N N N N N N N N N N N N N N N N N N N N N N N N O                         ",
"                                      P P P P P P P P P P P P P P P P P P P P P P P P P P P P P P P Q                           ",
"                                      R S S S S S S S S S S S S S S S S S S S S S S S S S S S S S S                             ",
"                                        T T T T T T T U V W X X X X Y Y Z Z Z Y Y `  ...+.@.#.$.$.                              ",
"                                        %.&.&.&.&.&.&.&.*.                                                                      ",
"                                          =.-.;.;.>.>.>.,.                                                                      ",
"                                          '.).).!.).).).).~.                                                                    ",
"                                            {.].].].].^.^.].{././././.{.{.{.{.{.{.{.{.{.{.(.{.                                  ",
"                                              _._._._._._._._._._._._._._._._._._._._._._.:.<.                                  ",
"                                              [.}.}.}.}.}.}.}.}.}.}.}.}.}.}.}.}.}.}.}.}.}.|.                                    ",
"                                                1.2.2.2.2.2.2.2.2.2.2.2.2.2.2.2.2.2.2.2.2.3.                                    ",
"                                                4.5.5.5.5.5.5.5.5.5.5.5.5.5.5.5.5.5.5.5.6.                                      ",
"                                                  7.8.8.8.8.8.8.7.9.9.9.7.7.7.7.7.7.7.7.                                        ",
"                                                  0.a.b.b.c.a.a.d.                                                              ",
"                                                    e.f.f.f.f.f.g.                                                              ",
"                                                      h.i.i.i.i.i.j.                                                            ",
"                                                      k.l.l.l.l.l.m.n.o.p.q.r.s.t.u.                                            ",
"                                                        v.w.w.w.w.w.w.w.w.w.w.w.w.x.                                            ",
"                                                        y.z.z.z.z.z.z.z.z.z.z.z.A.                                              ",
"                                                          B.C.C.C.C.C.C.C.C.C.C.                                                ",
"                                                          D.E.F.F.F.F.F.F.F.E.G.                                                ",
"                                                            H.I.I.I.I.I.I.I.J.                                                  ",
"                                                              K.L.L.L.L.L.L.M.                                                  ",
"                                                              N.O.P.P.O.O.Q.                                                    ",
"                                                                R.S.S.S.S.T.                                                    ",
"                                                                U.V.V.V.W.                                                      ",
"                                                                  X.Y.Z.                                                        ",
"                                                                  `. +.+                                                        ",
"                                                                    ++                                                          ",
"                                                                                                                                ",
"                                                                                                                                ",
"                                                                                                                                ",
"                                                                                                                                ",
"                                                                                                                                ",
"                                                                                                                                ",
"                                                                                                                                ",
"                                                                                                                                ",
"                                                                                                                                ",
"                                                                                                                                ",
"                                                                                                                                "};
